<svg id="Layer_1" data-name="Layer 1" xmlns="http://www.w3.org/2000/svg" viewBox="0 0 645.34 279.01"><defs><style>.cls-1{fill:#fff;}</style></defs><path class="cls-1" d="M96.56,196.32H77.41V82.69H96.56Z"/><path class="cls-1" d="M115.37,156a42,42,0,1,1,84,0c0,23.77-18.81,41.93-42.09,41.93A41.57,41.57,0,0,1,115.37,156Zm20.3,0c0,29.38,7.76,40.44,21.62,40.44s21.63-11.06,21.63-40.44c0-29.71-7.76-40.76-21.63-40.76S135.67,126.33,135.67,156Z"/><path class="cls-1" d="M224.8,129.8c0,8.25,5.44,11.39,15.18,13.87l15.68,4.12c14.69,4,23.77,9.57,23.77,22.78,0,16.5-14.2,27.4-34,27.4-16.51,0-31.36-8.42-35-22.61l1.65-.66c3.46,14.19,18.65,21.62,33.34,21.62,12.05,0,21.78-5.78,21.78-16.51,0-8.42-6.93-12.05-16.17-14.36l-16.18-4.12c-13-3.31-21.29-9.58-21.29-21.63,0-15.35,13.87-25.91,31.86-25.91,14,0,25.25,5.94,29.54,18.16l-1.48.66c-4.46-12.05-14.86-17.17-28.06-17.17C233.21,115.44,224.8,121.55,224.8,129.8Z"/><path class="cls-1" d="M292.3,156a42,42,0,1,1,84,0c0,23.77-18.81,41.93-42.09,41.93A41.57,41.57,0,0,1,292.3,156Zm20.3,0c0,29.38,7.76,40.44,21.62,40.44s21.63-11.06,21.63-40.44c0-29.71-7.76-40.76-21.63-40.76S312.6,126.33,312.6,156Z"/><path class="cls-1" d="M452.56,82.69h19.15V196.32H453.22l-.66-20.14c-3.3,12-13.7,21.79-28.55,21.79-18.16,0-34.83-15.68-34.83-41.27s16-42.91,35.16-42.91c14,0,24.76,8.91,28.22,21.62Zm.17,63c-.5-15.85-10.23-27.57-22.28-27.57-13.37,0-20.8,15.85-20.8,38.29s7.26,37.47,20.63,37.47c11.39,0,22-11.22,22.45-27.56Z"/><path class="cls-1" d="M531.46,198c-20.14,0-40.94-15.68-40.94-41.43,0-26.24,19.31-42.75,40.11-42.75,23.93,0,37.3,17.66,37.3,38.62H510.82V157c0,25.09,8.75,38.3,25.92,38.3,13.37,0,25.42-8.26,29-24.43l1.65.33C563.31,188.23,550.44,198,531.46,198Zm-20.64-47.21h38c0-21.78-4.13-35.48-18.16-35.48C519.9,115.28,511.81,125,510.82,150.76Z"/><rect class="cls-1" x="151.64" y="210.26" width="11.48" height="15.37"/><polygon class="cls-1" points="327.61 105.75 341.01 82.69 327.61 82.69 327.61 105.75"/></svg>